<svg width="1274" height="110" viewBox="0 0 1274 110" fill="none" xmlns="http://www.w3.org/2000/svg">
<g filter="url(#filter0_d_6115_113633)">
<path d="M71.6487 96.4397C47.6487 96.4397 28.9287 79.6397 28.9287 55.0397C28.9287 30.3197 47.6487 13.6396 71.6487 13.6396C91.5687 13.6396 101.889 24.5597 107.169 35.1197L89.4087 43.5196C86.7687 37.1596 79.9287 31.8797 71.6487 31.8797C59.1687 31.8797 49.9287 41.9597 49.9287 55.0397C49.9287 68.1197 59.1687 78.1996 71.6487 78.1996C79.9287 78.1996 86.7687 72.9197 89.4087 66.5597L107.169 74.9597C102.009 85.2797 91.5687 96.4397 71.6487 96.4397Z" fill="url(#paint0_linear_6115_113633)"/>
<path d="M155.293 94.9996H134.653V62.7197L104.293 14.9596H127.573L144.973 44.4796L162.133 14.9596H185.533L155.293 62.7197V94.9996Z" fill="url(#paint1_linear_6115_113633)"/>
<path d="M238.246 94.9996H191.446V14.9596H236.806C252.646 14.9596 260.206 25.2796 260.206 35.3597C260.206 45.3196 254.086 52.0397 246.526 53.7197C255.046 55.0397 261.766 63.1997 261.766 73.2797C261.766 84.9197 253.966 94.9996 238.246 94.9996ZM212.086 32.1196V45.9197H232.126C236.326 45.9197 239.206 42.9197 239.206 38.9597C239.206 34.9997 236.326 32.1196 232.126 32.1196H212.086ZM212.086 62.9597V77.8396H232.846C237.766 77.8396 240.766 74.8397 240.766 70.5197C240.766 66.4397 237.886 62.9597 232.846 62.9597H212.086Z" fill="url(#paint2_linear_6115_113633)"/>
<path d="M331.689 94.9996H273.009V14.9596H331.689V32.3597H293.649V45.6797H330.849V63.1996H293.649V77.5997H331.689V94.9996Z" fill="url(#paint3_linear_6115_113633)"/>
<path d="M411.953 94.9996H388.313L374.873 67.8797H364.313V94.9996H343.673V14.9596H383.753C401.513 14.9596 411.593 26.7197 411.593 41.5996C411.593 55.5196 403.073 62.9596 395.633 65.5997L411.953 94.9996ZM390.593 41.3596C390.593 35.8396 386.033 32.3597 380.633 32.3597H364.313V50.3597H380.633C386.033 50.3597 390.593 46.8797 390.593 41.3596Z" fill="url(#paint4_linear_6115_113633)"/>
<path d="M443.649 94.9996H423.009V14.9596H463.089C481.089 14.9596 490.929 27.0796 490.929 41.5996C490.929 55.9997 481.089 67.8797 463.089 67.8797H443.649V94.9996ZM469.929 41.4797C469.929 35.9597 465.849 32.3597 460.329 32.3597H443.649V50.3597H460.329C465.849 50.3597 469.929 46.8797 469.929 41.4797Z" fill="url(#paint5_linear_6115_113633)"/>
<path d="M569.206 94.9996H546.766L542.686 82.8796H509.446L505.366 94.9996H482.926L513.046 14.9596H538.966L569.206 94.9996ZM537.286 65.4797L526.006 32.9597L514.846 65.4797H537.286Z" fill="url(#paint6_linear_6115_113633)"/>
<path d="M608.838 94.9996H575.118V14.9596H608.718C633.918 14.9596 652.038 30.0797 652.038 54.9197C652.038 79.7597 633.918 94.9996 608.838 94.9996ZM595.758 32.9597V76.9997H608.718C622.758 76.9997 630.918 66.7997 630.918 54.9197C630.918 42.5597 623.478 32.9597 608.838 32.9597H595.758Z" fill="url(#paint7_linear_6115_113633)"/>
<path d="M768.129 94.9996H743.769L726.369 68.1197L708.969 94.9996H684.489L712.449 53.9597L686.289 14.9596H710.649L726.369 40.0396L741.849 14.9596H766.329L740.289 53.8396L768.129 94.9996Z" fill="url(#paint8_linear_6115_113633)"/>
<path d="M793.56 73.6397H764.76V58.1597H793.56V73.6397Z" fill="url(#paint9_linear_6115_113633)"/>
<path d="M842.857 94.9996H822.217V32.9597H799.777V14.9596H865.177V32.9597H842.857V94.9996Z" fill="url(#paint10_linear_6115_113633)"/>
<path d="M943.281 94.9996H919.641L906.201 67.8797H895.641V94.9996H875.001V14.9596H915.081C932.841 14.9596 942.921 26.7197 942.921 41.5996C942.921 55.5196 934.401 62.9596 926.961 65.5997L943.281 94.9996ZM921.921 41.3596C921.921 35.8396 917.361 32.3597 911.961 32.3597H895.641V50.3597H911.961C917.361 50.3597 921.921 46.8797 921.921 41.3596Z" fill="url(#paint11_linear_6115_113633)"/>
<path d="M1013.02 94.9996H954.337V14.9596H1013.02V32.3597H974.977V45.6797H1012.18V63.1996H974.977V77.5997H1013.02V94.9996Z" fill="url(#paint12_linear_6115_113633)"/>
<path d="M1115.84 94.9996H1095.2V40.9997L1074.92 94.9996H1065.8L1045.64 40.9997V94.9996H1025V14.9596H1053.68L1070.36 60.3197L1087.16 14.9596H1115.84V94.9996Z" fill="url(#paint13_linear_6115_113633)"/>
<path d="M1188.92 94.9996H1130.24V14.9596H1188.92V32.3597H1150.88V45.6797H1188.08V63.1996H1150.88V77.5997H1188.92V94.9996Z" fill="url(#paint14_linear_6115_113633)"/>
<path d="M1213.98 18.0796H1206.54V41.3596H1203.18V18.0796H1195.74V14.9596H1213.98V18.0796ZM1243.98 41.3596H1240.62V19.5197L1231.62 41.3596H1230.66L1221.66 19.5197V41.3596H1218.3V14.9596H1223.46L1231.14 34.1596L1238.82 14.9596H1243.98V41.3596Z" fill="url(#paint15_linear_6115_113633)"/>
</g>
<defs>
<filter id="filter0_d_6115_113633" x="15.4392" y="0.150183" width="1242.03" height="109.779" filterUnits="userSpaceOnUse" color-interpolation-filters="sRGB">
<feFlood flood-opacity="0" result="BackgroundImageFix"/>
<feColorMatrix in="SourceAlpha" type="matrix" values="0 0 0 0 0 0 0 0 0 0 0 0 0 0 0 0 0 0 127 0" result="hardAlpha"/>
<feOffset/>
<feGaussianBlur stdDeviation="6.74473"/>
<feComposite in2="hardAlpha" operator="out"/>
<feColorMatrix type="matrix" values="0 0 0 0 0 0 0 0 0 0 0 0 0 0 0 0 0 0 0.2 0"/>
<feBlend mode="normal" in2="BackgroundImageFix" result="effect1_dropShadow_6115_113633"/>
<feBlend mode="normal" in="SourceGraphic" in2="effect1_dropShadow_6115_113633" result="shape"/>
</filter>
<linearGradient id="paint0_linear_6115_113633" x1="481.828" y1="96.4397" x2="483.188" y2="29.3993" gradientUnits="userSpaceOnUse">
<stop offset="0.0833032" stop-color="#FB7411"/>
<stop offset="1" stop-color="#F0982C"/>
</linearGradient>
<linearGradient id="paint1_linear_6115_113633" x1="481.828" y1="96.4397" x2="483.188" y2="29.3993" gradientUnits="userSpaceOnUse">
<stop offset="0.0833032" stop-color="#FB7411"/>
<stop offset="1" stop-color="#F0982C"/>
</linearGradient>
<linearGradient id="paint2_linear_6115_113633" x1="481.828" y1="96.4397" x2="483.188" y2="29.3993" gradientUnits="userSpaceOnUse">
<stop offset="0.0833032" stop-color="#FB7411"/>
<stop offset="1" stop-color="#F0982C"/>
</linearGradient>
<linearGradient id="paint3_linear_6115_113633" x1="481.828" y1="96.4397" x2="483.188" y2="29.3993" gradientUnits="userSpaceOnUse">
<stop offset="0.0833032" stop-color="#FB7411"/>
<stop offset="1" stop-color="#F0982C"/>
</linearGradient>
<linearGradient id="paint4_linear_6115_113633" x1="481.828" y1="96.4397" x2="483.188" y2="29.3993" gradientUnits="userSpaceOnUse">
<stop offset="0.0833032" stop-color="#FB7411"/>
<stop offset="1" stop-color="#F0982C"/>
</linearGradient>
<linearGradient id="paint5_linear_6115_113633" x1="481.828" y1="96.4397" x2="483.188" y2="29.3993" gradientUnits="userSpaceOnUse">
<stop offset="0.0833032" stop-color="#FB7411"/>
<stop offset="1" stop-color="#F0982C"/>
</linearGradient>
<linearGradient id="paint6_linear_6115_113633" x1="481.828" y1="96.4397" x2="483.188" y2="29.3993" gradientUnits="userSpaceOnUse">
<stop offset="0.0833032" stop-color="#FB7411"/>
<stop offset="1" stop-color="#F0982C"/>
</linearGradient>
<linearGradient id="paint7_linear_6115_113633" x1="481.828" y1="96.4397" x2="483.188" y2="29.3993" gradientUnits="userSpaceOnUse">
<stop offset="0.0833032" stop-color="#FB7411"/>
<stop offset="1" stop-color="#F0982C"/>
</linearGradient>
<linearGradient id="paint8_linear_6115_113633" x1="481.828" y1="96.4397" x2="483.188" y2="29.3993" gradientUnits="userSpaceOnUse">
<stop offset="0.0833032" stop-color="#FB7411"/>
<stop offset="1" stop-color="#F0982C"/>
</linearGradient>
<linearGradient id="paint9_linear_6115_113633" x1="481.828" y1="96.4397" x2="483.188" y2="29.3993" gradientUnits="userSpaceOnUse">
<stop offset="0.0833032" stop-color="#FB7411"/>
<stop offset="1" stop-color="#F0982C"/>
</linearGradient>
<linearGradient id="paint10_linear_6115_113633" x1="481.828" y1="96.4397" x2="483.188" y2="29.3993" gradientUnits="userSpaceOnUse">
<stop offset="0.0833032" stop-color="#FB7411"/>
<stop offset="1" stop-color="#F0982C"/>
</linearGradient>
<linearGradient id="paint11_linear_6115_113633" x1="481.828" y1="96.4397" x2="483.188" y2="29.3993" gradientUnits="userSpaceOnUse">
<stop offset="0.0833032" stop-color="#FB7411"/>
<stop offset="1" stop-color="#F0982C"/>
</linearGradient>
<linearGradient id="paint12_linear_6115_113633" x1="481.828" y1="96.4397" x2="483.188" y2="29.3993" gradientUnits="userSpaceOnUse">
<stop offset="0.0833032" stop-color="#FB7411"/>
<stop offset="1" stop-color="#F0982C"/>
</linearGradient>
<linearGradient id="paint13_linear_6115_113633" x1="481.828" y1="96.4397" x2="483.188" y2="29.3993" gradientUnits="userSpaceOnUse">
<stop offset="0.0833032" stop-color="#FB7411"/>
<stop offset="1" stop-color="#F0982C"/>
</linearGradient>
<linearGradient id="paint14_linear_6115_113633" x1="481.828" y1="96.4397" x2="483.188" y2="29.3993" gradientUnits="userSpaceOnUse">
<stop offset="0.0833032" stop-color="#FB7411"/>
<stop offset="1" stop-color="#F0982C"/>
</linearGradient>
<linearGradient id="paint15_linear_6115_113633" x1="481.828" y1="96.4397" x2="483.188" y2="29.3993" gradientUnits="userSpaceOnUse">
<stop offset="0.0833032" stop-color="#FB7411"/>
<stop offset="1" stop-color="#F0982C"/>
</linearGradient>
</defs>
</svg>
