<svg width="1124" height="84" viewBox="0 0 1124 84" fill="none" xmlns="http://www.w3.org/2000/svg">
<path d="M0.336914 76.2396L8.97691 60.5197C11.8569 62.9197 15.6969 65.1996 20.4969 65.1996C26.9769 65.1996 31.1769 60.9996 31.1769 54.2797V1.95965H51.8169V54.5196C51.8169 74.3196 39.8169 83.4397 22.2969 83.4397C14.2569 83.4397 6.33691 81.5196 0.336914 76.2396Z" fill="#FFD500"/>
<path d="M62.1594 42.0397C62.1594 17.6797 80.5194 0.639648 104.999 0.639648C129.479 0.639648 147.719 17.6797 147.719 42.0397C147.719 66.3997 129.479 83.4397 104.999 83.4397C80.5194 83.4397 62.1594 66.3997 62.1594 42.0397ZM126.719 42.0397C126.719 28.9597 118.199 18.8797 104.999 18.8797C91.6794 18.8797 83.1594 28.9597 83.1594 42.0397C83.1594 54.9997 91.6794 65.1996 104.999 65.1996C118.199 65.1996 126.719 54.9997 126.719 42.0397Z" fill="#FFD500"/>
<path d="M195.79 81.9996H175.15V49.7197L144.79 1.95965H168.07L185.47 31.4796L202.63 1.95965H226.03L195.79 49.7197V81.9996Z" fill="#FFD500"/>
<path d="M278.743 81.9996H231.943V1.95965H277.303C293.143 1.95965 300.703 12.2796 300.703 22.3597C300.703 32.3196 294.583 39.0396 287.023 40.7197C295.543 42.0396 302.263 50.1996 302.263 60.2797C302.263 71.9197 294.463 81.9996 278.743 81.9996ZM252.583 19.1196V32.9197H272.623C276.823 32.9197 279.703 29.9197 279.703 25.9597C279.703 21.9997 276.823 19.1196 272.623 19.1196H252.583ZM252.583 49.9597V64.8396H273.343C278.263 64.8396 281.263 61.8397 281.263 57.5197C281.263 53.4397 278.383 49.9597 273.343 49.9597H252.583Z" fill="#FFD500"/>
<path d="M366.305 81.9996H313.505V1.95965H334.145V63.9997H366.305V81.9996Z" fill="#FFD500"/>
<path d="M454.781 81.9996H432.341L428.261 69.8796H395.021L390.941 81.9996H368.501L398.621 1.95965H424.541L454.781 81.9996ZM422.861 52.4797L411.581 19.9597L400.421 52.4797H422.861Z" fill="#FFD500"/>
<path d="M454.464 70.7197L465.384 55.2397C471.144 60.9996 480.024 65.7997 490.944 65.7997C498.024 65.7997 502.344 62.7997 502.344 58.9597C502.344 54.3997 497.184 52.5997 488.664 50.7997C475.464 48.1597 456.984 44.7997 456.984 25.8396C456.984 12.3996 468.384 0.759647 488.904 0.759647C501.744 0.759647 512.904 4.59965 521.424 11.9196L510.144 26.6796C503.424 21.1596 494.664 18.3996 487.584 18.3996C480.744 18.3996 478.104 21.1596 478.104 24.6397C478.104 28.8396 483.024 30.2796 491.904 31.9596C505.104 34.7197 523.344 38.5597 523.344 56.6797C523.344 72.7597 511.464 83.4397 489.984 83.4397C473.784 83.4397 462.504 78.3997 454.464 70.7197Z" fill="#FFD500"/>
<path d="M571.049 81.9996H550.409V19.9597H527.969V1.95965H593.368V19.9597H571.049V81.9996Z" fill="#FFD500"/>
<path d="M661.873 81.9996H603.193V1.95965H661.873V19.3597H623.833V32.6797H661.033V50.1996H623.833V64.5997H661.873V81.9996Z" fill="#FFD500"/>
<path d="M742.137 81.9996H718.497L705.057 54.8797H694.497V81.9996H673.857V1.95965H713.937C731.697 1.95965 741.777 13.7197 741.777 28.5996C741.777 42.5196 733.257 49.9596 725.817 52.5997L742.137 81.9996ZM720.777 28.3596C720.777 22.8396 716.217 19.3597 710.817 19.3597H694.497V37.3597H710.817C716.217 37.3597 720.777 33.8797 720.777 28.3596Z" fill="#FFD500"/>
<path d="M778.616 70.8396L789.056 57.2797C794.816 62.9197 803.936 65.9196 810.896 65.9196C819.776 65.9196 824.336 62.3197 824.336 57.6397C824.336 52.9597 820.976 50.3197 810.056 50.3197C806.576 50.3197 800.456 50.4397 799.256 50.5597V32.7996C800.816 32.9197 807.056 32.9197 810.056 32.9197C818.336 32.9197 823.016 30.5197 823.016 26.0797C823.016 21.0397 817.256 18.3996 809.576 18.3996C802.256 18.3996 795.056 21.3997 789.416 26.3197L779.696 13.7197C786.416 6.15965 796.976 0.759647 811.736 0.759647C832.136 0.759647 843.536 9.51965 843.536 22.7197C843.536 32.0797 835.496 39.1596 826.016 40.7197C834.536 41.5597 844.856 48.1597 844.856 59.6797C844.856 73.7197 831.656 83.4397 811.736 83.4397C796.376 83.4397 784.856 78.0396 778.616 70.8396Z" fill="#FFD500"/>
<path d="M852.003 42.0397C852.003 20.9197 862.923 0.759647 886.323 0.759647C909.723 0.759647 920.643 20.9197 920.643 42.0397C920.643 63.1597 909.723 83.4397 886.323 83.4397C862.923 83.4397 852.003 63.1597 852.003 42.0397ZM899.763 42.0397C899.763 27.8797 895.923 18.9996 886.323 18.9996C876.723 18.9996 872.883 27.8797 872.883 42.0397C872.883 56.1997 876.723 65.1996 886.323 65.1996C895.923 65.1996 899.763 56.1997 899.763 42.0397Z" fill="#FFD500"/>
<path d="M926.886 42.0397C926.886 20.9197 937.806 0.759647 961.206 0.759647C984.606 0.759647 995.526 20.9197 995.526 42.0397C995.526 63.1597 984.606 83.4397 961.206 83.4397C937.806 83.4397 926.886 63.1597 926.886 42.0397ZM974.646 42.0397C974.646 27.8797 970.806 18.9996 961.206 18.9996C951.606 18.9996 947.766 27.8797 947.766 42.0397C947.766 56.1997 951.606 65.1996 961.206 65.1996C970.806 65.1996 974.646 56.1997 974.646 42.0397Z" fill="#FFD500"/>
<path d="M1001.77 42.0397C1001.77 20.9197 1012.69 0.759647 1036.09 0.759647C1059.49 0.759647 1070.41 20.9197 1070.41 42.0397C1070.41 63.1597 1059.49 83.4397 1036.09 83.4397C1012.69 83.4397 1001.77 63.1597 1001.77 42.0397ZM1049.53 42.0397C1049.53 27.8797 1045.69 18.9996 1036.09 18.9996C1026.49 18.9996 1022.65 27.8797 1022.65 42.0397C1022.65 56.1997 1026.49 65.1996 1036.09 65.1996C1045.69 65.1996 1049.53 56.1997 1049.53 42.0397Z" fill="#FFD500"/>
<path d="M1093.81 5.07965H1086.37V28.3596H1083.01V5.07965H1075.57V1.95965H1093.81V5.07965ZM1123.81 28.3596H1120.45V6.51965L1111.45 28.3596H1110.49L1101.49 6.51965V28.3596H1098.13V1.95965H1103.29L1110.97 21.1596L1118.65 1.95965H1123.81V28.3596Z" fill="#FFD500"/>
</svg>
