<svg width="1274" height="110" viewBox="0 0 1274 110" fill="none" xmlns="http://www.w3.org/2000/svg">
<g filter="url(#filter0_d_6115_113632)">
<path d="M73.3364 89.2396L81.9764 73.5197C84.8564 75.9197 88.6964 78.1996 93.4964 78.1996C99.9764 78.1996 104.176 73.9997 104.176 67.2797V14.9596H124.816V67.5196C124.816 87.3197 112.816 96.4397 95.2964 96.4397C87.2564 96.4397 79.3364 94.5196 73.3364 89.2396Z" fill="url(#paint0_linear_6115_113632)"/>
<path d="M135.159 55.0397C135.159 30.6797 153.519 13.6396 177.999 13.6396C202.479 13.6396 220.719 30.6797 220.719 55.0397C220.719 79.3997 202.479 96.4397 177.999 96.4397C153.519 96.4397 135.159 79.3997 135.159 55.0397ZM199.719 55.0397C199.719 41.9597 191.199 31.8797 177.999 31.8797C164.679 31.8797 156.159 41.9597 156.159 55.0397C156.159 67.9997 164.679 78.1996 177.999 78.1996C191.199 78.1996 199.719 67.9997 199.719 55.0397Z" fill="url(#paint1_linear_6115_113632)"/>
<path d="M248.149 94.9996V62.7197L217.789 14.9596H241.069L258.469 44.4796L275.629 14.9596H299.029L268.789 62.7197V94.9996H248.149Z" fill="url(#paint2_linear_6115_113632)"/>
<path d="M304.942 94.9996V14.9596H350.302C366.142 14.9596 373.702 25.2796 373.702 35.3597C373.702 45.3196 367.582 52.0397 360.022 53.7197C368.542 55.0397 375.262 63.1997 375.262 73.2797C375.262 84.9197 367.462 94.9996 351.742 94.9996H304.942ZM325.582 45.9197H345.622C349.822 45.9197 352.702 42.9197 352.702 38.9597C352.702 34.9997 349.822 32.1196 345.622 32.1196H325.582V45.9197ZM325.582 77.8396H346.342C351.262 77.8396 354.262 74.8397 354.262 70.5197C354.262 66.4397 351.382 62.9597 346.342 62.9597H325.582V77.8396Z" fill="url(#paint3_linear_6115_113632)"/>
<path d="M386.505 94.9996V14.9596H407.145V76.9997H439.305V94.9996H386.505Z" fill="url(#paint4_linear_6115_113632)"/>
<path d="M505.34 94.9996L501.26 82.8796H468.02L463.94 94.9996H441.5L471.62 14.9596H497.54L527.78 94.9996H505.34ZM484.58 32.9597L473.42 65.4797H495.86L484.58 32.9597Z" fill="url(#paint5_linear_6115_113632)"/>
<path d="M527.463 83.7197L538.383 68.2397C544.143 73.9997 553.023 78.7997 563.943 78.7997C571.023 78.7997 575.343 75.7997 575.343 71.9597C575.343 67.3997 570.183 65.5997 561.663 63.7997C548.463 61.1597 529.983 57.7997 529.983 38.8396C529.983 25.3996 541.383 13.7596 561.903 13.7596C574.743 13.7596 585.903 17.5996 594.423 24.9196L583.143 39.6796C576.423 34.1596 567.663 31.3996 560.583 31.3996C553.743 31.3996 551.103 34.1596 551.103 37.6397C551.103 41.8397 556.023 43.2796 564.903 44.9596C578.103 47.7196 596.343 51.5597 596.343 69.6797C596.343 85.7597 584.463 96.4397 562.983 96.4397C546.783 96.4397 535.503 91.3997 527.463 83.7197Z" fill="url(#paint6_linear_6115_113632)"/>
<path d="M623.408 94.9996V32.9597H600.968V14.9596H666.368V32.9597H644.048V94.9996H623.408Z" fill="url(#paint7_linear_6115_113632)"/>
<path d="M676.192 94.9996V14.9596H734.872V32.3597H696.832V45.6797H734.032V63.1996H696.832V77.5997H734.872V94.9996H676.192Z" fill="url(#paint8_linear_6115_113632)"/>
<path d="M791.496 94.9996L778.056 67.8797H767.496V94.9996H746.856V14.9596H786.936C804.696 14.9596 814.776 26.7197 814.776 41.5996C814.776 55.5196 806.256 62.9596 798.816 65.5997L815.136 94.9996H791.496ZM793.776 41.3596C793.776 35.8396 789.216 32.3597 783.816 32.3597H767.496V50.3597H783.816C789.216 50.3597 793.776 46.8797 793.776 41.3596Z" fill="url(#paint9_linear_6115_113632)"/>
<path d="M851.615 83.8396L862.055 70.2797C867.815 75.9197 876.935 78.9196 883.895 78.9196C892.775 78.9196 897.335 75.3197 897.335 70.6397C897.335 65.9597 893.975 63.3197 883.055 63.3197C879.575 63.3197 873.455 63.4397 872.255 63.5597V45.7996C873.815 45.9197 880.055 45.9197 883.055 45.9197C891.335 45.9197 896.015 43.5197 896.015 39.0797C896.015 34.0397 890.255 31.3996 882.575 31.3996C875.255 31.3996 868.055 34.3997 862.415 39.3197L852.695 26.7197C859.415 19.1596 869.975 13.7596 884.735 13.7596C905.135 13.7596 916.535 22.5196 916.535 35.7197C916.535 45.0797 908.495 52.1596 899.015 53.7197C907.535 54.5597 917.855 61.1597 917.855 72.6797C917.855 86.7197 904.655 96.4397 884.735 96.4397C869.375 96.4397 857.855 91.0396 851.615 83.8396Z" fill="url(#paint10_linear_6115_113632)"/>
<path d="M925.003 55.0397C925.003 33.9197 935.923 13.7596 959.323 13.7596C982.723 13.7596 993.643 33.9197 993.643 55.0397C993.643 76.1597 982.723 96.4397 959.323 96.4397C935.923 96.4397 925.003 76.1597 925.003 55.0397ZM972.763 55.0397C972.763 40.8797 968.923 31.9996 959.323 31.9996C949.723 31.9996 945.883 40.8797 945.883 55.0397C945.883 69.1997 949.723 78.1996 959.323 78.1996C968.923 78.1996 972.763 69.1997 972.763 55.0397Z" fill="url(#paint11_linear_6115_113632)"/>
<path d="M999.885 55.0397C999.885 33.9197 1010.81 13.7596 1034.21 13.7596C1057.61 13.7596 1068.53 33.9197 1068.53 55.0397C1068.53 76.1597 1057.61 96.4397 1034.21 96.4397C1010.81 96.4397 999.885 76.1597 999.885 55.0397ZM1047.65 55.0397C1047.65 40.8797 1043.81 31.9996 1034.21 31.9996C1024.61 31.9996 1020.77 40.8797 1020.77 55.0397C1020.77 69.1997 1024.61 78.1996 1034.21 78.1996C1043.81 78.1996 1047.65 69.1997 1047.65 55.0397Z" fill="url(#paint12_linear_6115_113632)"/>
<path d="M1074.77 55.0397C1074.77 33.9197 1085.69 13.7596 1109.09 13.7596C1132.49 13.7596 1143.41 33.9197 1143.41 55.0397C1143.41 76.1597 1132.49 96.4397 1109.09 96.4397C1085.69 96.4397 1074.77 76.1597 1074.77 55.0397ZM1122.53 55.0397C1122.53 40.8797 1118.69 31.9996 1109.09 31.9996C1099.49 31.9996 1095.65 40.8797 1095.65 55.0397C1095.65 69.1997 1099.49 78.1996 1109.09 78.1996C1118.69 78.1996 1122.53 69.1997 1122.53 55.0397Z" fill="url(#paint13_linear_6115_113632)"/>
<path d="M1159.37 18.0796V41.3596H1156.01V18.0796H1148.57V14.9596H1166.81V18.0796H1159.37ZM1193.45 41.3596V19.5197L1184.45 41.3596H1183.49L1174.49 19.5197V41.3596H1171.13V14.9596H1176.29L1183.97 34.1596L1191.65 14.9596H1196.81V41.3596H1193.45Z" fill="url(#paint14_linear_6115_113632)"/>
</g>
<defs>
<filter id="filter0_d_6115_113632" x="59.847" y="0.150183" width="1150.45" height="109.779" filterUnits="userSpaceOnUse" color-interpolation-filters="sRGB">
<feFlood flood-opacity="0" result="BackgroundImageFix"/>
<feColorMatrix in="SourceAlpha" type="matrix" values="0 0 0 0 0 0 0 0 0 0 0 0 0 0 0 0 0 0 127 0" result="hardAlpha"/>
<feOffset/>
<feGaussianBlur stdDeviation="6.74473"/>
<feComposite in2="hardAlpha" operator="out"/>
<feColorMatrix type="matrix" values="0 0 0 0 0 0 0 0 0 0 0 0 0 0 0 0 0 0 0.2 0"/>
<feBlend mode="normal" in2="BackgroundImageFix" result="effect1_dropShadow_6115_113632"/>
<feBlend mode="normal" in="SourceGraphic" in2="effect1_dropShadow_6115_113632" result="shape"/>
</filter>
<linearGradient id="paint0_linear_6115_113632" x1="492.101" y1="96.4397" x2="493.573" y2="29.404" gradientUnits="userSpaceOnUse">
<stop offset="0.0833032" stop-color="#FB7411"/>
<stop offset="1" stop-color="#F0982C"/>
</linearGradient>
<linearGradient id="paint1_linear_6115_113632" x1="492.101" y1="96.4397" x2="493.573" y2="29.404" gradientUnits="userSpaceOnUse">
<stop offset="0.0833032" stop-color="#FB7411"/>
<stop offset="1" stop-color="#F0982C"/>
</linearGradient>
<linearGradient id="paint2_linear_6115_113632" x1="492.101" y1="96.4397" x2="493.573" y2="29.404" gradientUnits="userSpaceOnUse">
<stop offset="0.0833032" stop-color="#FB7411"/>
<stop offset="1" stop-color="#F0982C"/>
</linearGradient>
<linearGradient id="paint3_linear_6115_113632" x1="492.101" y1="96.4397" x2="493.573" y2="29.404" gradientUnits="userSpaceOnUse">
<stop offset="0.0833032" stop-color="#FB7411"/>
<stop offset="1" stop-color="#F0982C"/>
</linearGradient>
<linearGradient id="paint4_linear_6115_113632" x1="492.101" y1="96.4397" x2="493.573" y2="29.404" gradientUnits="userSpaceOnUse">
<stop offset="0.0833032" stop-color="#FB7411"/>
<stop offset="1" stop-color="#F0982C"/>
</linearGradient>
<linearGradient id="paint5_linear_6115_113632" x1="492.101" y1="96.4397" x2="493.573" y2="29.404" gradientUnits="userSpaceOnUse">
<stop offset="0.0833032" stop-color="#FB7411"/>
<stop offset="1" stop-color="#F0982C"/>
</linearGradient>
<linearGradient id="paint6_linear_6115_113632" x1="492.101" y1="96.4397" x2="493.573" y2="29.404" gradientUnits="userSpaceOnUse">
<stop offset="0.0833032" stop-color="#FB7411"/>
<stop offset="1" stop-color="#F0982C"/>
</linearGradient>
<linearGradient id="paint7_linear_6115_113632" x1="492.101" y1="96.4397" x2="493.573" y2="29.404" gradientUnits="userSpaceOnUse">
<stop offset="0.0833032" stop-color="#FB7411"/>
<stop offset="1" stop-color="#F0982C"/>
</linearGradient>
<linearGradient id="paint8_linear_6115_113632" x1="492.101" y1="96.4397" x2="493.573" y2="29.404" gradientUnits="userSpaceOnUse">
<stop offset="0.0833032" stop-color="#FB7411"/>
<stop offset="1" stop-color="#F0982C"/>
</linearGradient>
<linearGradient id="paint9_linear_6115_113632" x1="492.101" y1="96.4397" x2="493.573" y2="29.404" gradientUnits="userSpaceOnUse">
<stop offset="0.0833032" stop-color="#FB7411"/>
<stop offset="1" stop-color="#F0982C"/>
</linearGradient>
<linearGradient id="paint10_linear_6115_113632" x1="492.101" y1="96.4397" x2="493.573" y2="29.404" gradientUnits="userSpaceOnUse">
<stop offset="0.0833032" stop-color="#FB7411"/>
<stop offset="1" stop-color="#F0982C"/>
</linearGradient>
<linearGradient id="paint11_linear_6115_113632" x1="492.101" y1="96.4397" x2="493.573" y2="29.404" gradientUnits="userSpaceOnUse">
<stop offset="0.0833032" stop-color="#FB7411"/>
<stop offset="1" stop-color="#F0982C"/>
</linearGradient>
<linearGradient id="paint12_linear_6115_113632" x1="492.101" y1="96.4397" x2="493.573" y2="29.404" gradientUnits="userSpaceOnUse">
<stop offset="0.0833032" stop-color="#FB7411"/>
<stop offset="1" stop-color="#F0982C"/>
</linearGradient>
<linearGradient id="paint13_linear_6115_113632" x1="492.101" y1="96.4397" x2="493.573" y2="29.404" gradientUnits="userSpaceOnUse">
<stop offset="0.0833032" stop-color="#FB7411"/>
<stop offset="1" stop-color="#F0982C"/>
</linearGradient>
<linearGradient id="paint14_linear_6115_113632" x1="492.101" y1="96.4397" x2="493.573" y2="29.404" gradientUnits="userSpaceOnUse">
<stop offset="0.0833032" stop-color="#FB7411"/>
<stop offset="1" stop-color="#F0982C"/>
</linearGradient>
</defs>
</svg>
