<svg width="1274" height="110" viewBox="0 0 1274 110" fill="none" xmlns="http://www.w3.org/2000/svg">
<g filter="url(#filter0_d_6115_113634)">
<path d="M136.798 94.9996H116.158V40.9997L95.878 94.9996H86.758L66.598 40.9997V94.9996H45.958V14.9596H74.638L91.318 60.3197L108.118 14.9596H136.798V94.9996Z" fill="url(#paint0_linear_6115_113634)"/>
<path d="M209.872 94.9996H151.192V14.9596H209.872V32.3597H171.832V45.6797H209.032V63.1996H171.832V77.5997H209.872V94.9996Z" fill="url(#paint1_linear_6115_113634)"/>
<path d="M217.776 55.0397C217.776 29.5997 237.216 13.6396 261.096 13.6396C278.616 13.6396 289.416 22.2797 295.296 32.2397L278.016 41.3596C274.776 36.0796 268.656 31.8797 261.096 31.8797C248.016 31.8797 238.776 41.9597 238.776 55.0397C238.776 68.1197 248.016 78.1996 261.096 78.1996C267.336 78.1996 272.976 76.0397 276.216 73.3997V66.6796H257.856V49.5197H296.496V80.8396C287.856 90.3196 276.216 96.4397 261.096 96.4397C237.216 96.4397 217.776 80.4797 217.776 55.0397Z" fill="url(#paint2_linear_6115_113634)"/>
<path d="M385.398 94.9996H362.958L358.878 82.8796H325.638L321.558 94.9996H299.118L329.238 14.9596H355.158L385.398 94.9996ZM353.478 65.4797L342.198 32.9597L331.038 65.4797H353.478Z" fill="url(#paint3_linear_6115_113634)"/>
<path d="M425.03 94.9996H391.31V14.9596H424.91C450.11 14.9596 468.23 30.0797 468.23 54.9197C468.23 79.7597 450.11 94.9996 425.03 94.9996ZM411.95 32.9597V76.9997H424.91C438.95 76.9997 447.11 66.7997 447.11 54.9197C447.11 42.5597 439.67 32.9597 425.03 32.9597H411.95Z" fill="url(#paint4_linear_6115_113634)"/>
<path d="M474.417 55.0397C474.417 30.6797 492.777 13.6396 517.257 13.6396C541.737 13.6396 559.977 30.6797 559.977 55.0397C559.977 79.3997 541.737 96.4397 517.257 96.4397C492.777 96.4397 474.417 79.3997 474.417 55.0397ZM538.977 55.0397C538.977 41.9597 530.457 31.8797 517.257 31.8797C503.937 31.8797 495.417 41.9597 495.417 55.0397C495.417 67.9997 503.937 78.1996 517.257 78.1996C530.457 78.1996 538.977 67.9997 538.977 55.0397Z" fill="url(#paint5_linear_6115_113634)"/>
<path d="M661.212 94.9996H640.572V40.9997L620.292 94.9996H611.172L591.012 40.9997V94.9996H570.372V14.9596H599.052L615.732 60.3197L632.532 14.9596H661.212V94.9996Z" fill="url(#paint6_linear_6115_113634)"/>
<path d="M734.286 94.9996H675.606V14.9596H734.286V32.3597H696.246V45.6797H733.446V63.1996H696.246V77.5997H734.286V94.9996Z" fill="url(#paint7_linear_6115_113634)"/>
<path d="M815.494 94.9996H794.854V32.9597H772.414V14.9596H837.814V32.9597H815.494V94.9996Z" fill="url(#paint8_linear_6115_113634)"/>
<path d="M847.638 62.5997V14.9596H868.638V61.8797C868.638 71.3597 873.678 78.1996 884.838 78.1996C895.878 78.1996 900.918 71.3597 900.918 61.8797V14.9596H921.918V62.4796C921.918 82.3997 910.518 96.4397 884.838 96.4397C859.158 96.4397 847.638 82.2797 847.638 62.5997Z" fill="url(#paint9_linear_6115_113634)"/>
<path d="M1004.63 94.9996H980.989L967.549 67.8797H956.989V94.9996H936.349V14.9596H976.429C994.189 14.9596 1004.27 26.7197 1004.27 41.5996C1004.27 55.5196 995.749 62.9596 988.309 65.5997L1004.63 94.9996ZM983.269 41.3596C983.269 35.8396 978.709 32.3597 973.309 32.3597H956.989V50.3597H973.309C978.709 50.3597 983.269 46.8797 983.269 41.3596Z" fill="url(#paint10_linear_6115_113634)"/>
<path d="M1062.48 94.9996H1015.68V14.9596H1061.04C1076.88 14.9596 1084.44 25.2796 1084.44 35.3597C1084.44 45.3196 1078.32 52.0397 1070.76 53.7197C1079.28 55.0397 1086 63.1997 1086 73.2797C1086 84.9197 1078.2 94.9996 1062.48 94.9996ZM1036.32 32.1196V45.9197H1056.36C1060.56 45.9197 1063.44 42.9197 1063.44 38.9597C1063.44 34.9997 1060.56 32.1196 1056.36 32.1196H1036.32ZM1036.32 62.9597V77.8396H1057.08C1062 77.8396 1065 74.8397 1065 70.5197C1065 66.4397 1062.12 62.9597 1057.08 62.9597H1036.32Z" fill="url(#paint11_linear_6115_113634)"/>
<path d="M1093.17 55.0397C1093.17 30.6797 1111.53 13.6396 1136.01 13.6396C1160.49 13.6396 1178.73 30.6797 1178.73 55.0397C1178.73 79.3997 1160.49 96.4397 1136.01 96.4397C1111.53 96.4397 1093.17 79.3997 1093.17 55.0397ZM1157.73 55.0397C1157.73 41.9597 1149.21 31.8797 1136.01 31.8797C1122.69 31.8797 1114.17 41.9597 1114.17 55.0397C1114.17 67.9997 1122.69 78.1996 1136.01 78.1996C1149.21 78.1996 1157.73 67.9997 1157.73 55.0397Z" fill="url(#paint12_linear_6115_113634)"/>
<path d="M1201.03 18.0796H1193.59V41.3596H1190.23V18.0796H1182.79V14.9596H1201.03V18.0796ZM1231.03 41.3596H1227.67V19.5197L1218.67 41.3596H1217.71L1208.71 19.5197V41.3596H1205.35V14.9596H1210.51L1218.19 34.1596L1225.87 14.9596H1231.03V41.3596Z" fill="url(#paint13_linear_6115_113634)"/>
</g>
<defs>
<filter id="filter0_d_6115_113634" x="32.4685" y="0.150183" width="1212.05" height="109.779" filterUnits="userSpaceOnUse" color-interpolation-filters="sRGB">
<feFlood flood-opacity="0" result="BackgroundImageFix"/>
<feColorMatrix in="SourceAlpha" type="matrix" values="0 0 0 0 0 0 0 0 0 0 0 0 0 0 0 0 0 0 127 0" result="hardAlpha"/>
<feOffset/>
<feGaussianBlur stdDeviation="6.74473"/>
<feComposite in2="hardAlpha" operator="out"/>
<feColorMatrix type="matrix" values="0 0 0 0 0 0 0 0 0 0 0 0 0 0 0 0 0 0 0.2 0"/>
<feBlend mode="normal" in2="BackgroundImageFix" result="effect1_dropShadow_6115_113634"/>
<feBlend mode="normal" in="SourceGraphic" in2="effect1_dropShadow_6115_113634" result="shape"/>
</filter>
<linearGradient id="paint0_linear_6115_113634" x1="487.683" y1="96.4397" x2="489.078" y2="29.4007" gradientUnits="userSpaceOnUse">
<stop offset="0.0833032" stop-color="#FB7411"/>
<stop offset="1" stop-color="#F0982C"/>
</linearGradient>
<linearGradient id="paint1_linear_6115_113634" x1="487.683" y1="96.4397" x2="489.078" y2="29.4007" gradientUnits="userSpaceOnUse">
<stop offset="0.0833032" stop-color="#FB7411"/>
<stop offset="1" stop-color="#F0982C"/>
</linearGradient>
<linearGradient id="paint2_linear_6115_113634" x1="487.683" y1="96.4397" x2="489.078" y2="29.4007" gradientUnits="userSpaceOnUse">
<stop offset="0.0833032" stop-color="#FB7411"/>
<stop offset="1" stop-color="#F0982C"/>
</linearGradient>
<linearGradient id="paint3_linear_6115_113634" x1="487.683" y1="96.4397" x2="489.078" y2="29.4007" gradientUnits="userSpaceOnUse">
<stop offset="0.0833032" stop-color="#FB7411"/>
<stop offset="1" stop-color="#F0982C"/>
</linearGradient>
<linearGradient id="paint4_linear_6115_113634" x1="487.683" y1="96.4397" x2="489.078" y2="29.4007" gradientUnits="userSpaceOnUse">
<stop offset="0.0833032" stop-color="#FB7411"/>
<stop offset="1" stop-color="#F0982C"/>
</linearGradient>
<linearGradient id="paint5_linear_6115_113634" x1="487.683" y1="96.4397" x2="489.078" y2="29.4007" gradientUnits="userSpaceOnUse">
<stop offset="0.0833032" stop-color="#FB7411"/>
<stop offset="1" stop-color="#F0982C"/>
</linearGradient>
<linearGradient id="paint6_linear_6115_113634" x1="487.683" y1="96.4397" x2="489.078" y2="29.4007" gradientUnits="userSpaceOnUse">
<stop offset="0.0833032" stop-color="#FB7411"/>
<stop offset="1" stop-color="#F0982C"/>
</linearGradient>
<linearGradient id="paint7_linear_6115_113634" x1="487.683" y1="96.4397" x2="489.078" y2="29.4007" gradientUnits="userSpaceOnUse">
<stop offset="0.0833032" stop-color="#FB7411"/>
<stop offset="1" stop-color="#F0982C"/>
</linearGradient>
<linearGradient id="paint8_linear_6115_113634" x1="487.683" y1="96.4397" x2="489.078" y2="29.4007" gradientUnits="userSpaceOnUse">
<stop offset="0.0833032" stop-color="#FB7411"/>
<stop offset="1" stop-color="#F0982C"/>
</linearGradient>
<linearGradient id="paint9_linear_6115_113634" x1="487.683" y1="96.4397" x2="489.078" y2="29.4007" gradientUnits="userSpaceOnUse">
<stop offset="0.0833032" stop-color="#FB7411"/>
<stop offset="1" stop-color="#F0982C"/>
</linearGradient>
<linearGradient id="paint10_linear_6115_113634" x1="487.683" y1="96.4397" x2="489.078" y2="29.4007" gradientUnits="userSpaceOnUse">
<stop offset="0.0833032" stop-color="#FB7411"/>
<stop offset="1" stop-color="#F0982C"/>
</linearGradient>
<linearGradient id="paint11_linear_6115_113634" x1="487.683" y1="96.4397" x2="489.078" y2="29.4007" gradientUnits="userSpaceOnUse">
<stop offset="0.0833032" stop-color="#FB7411"/>
<stop offset="1" stop-color="#F0982C"/>
</linearGradient>
<linearGradient id="paint12_linear_6115_113634" x1="487.683" y1="96.4397" x2="489.078" y2="29.4007" gradientUnits="userSpaceOnUse">
<stop offset="0.0833032" stop-color="#FB7411"/>
<stop offset="1" stop-color="#F0982C"/>
</linearGradient>
<linearGradient id="paint13_linear_6115_113634" x1="487.683" y1="96.4397" x2="489.078" y2="29.4007" gradientUnits="userSpaceOnUse">
<stop offset="0.0833032" stop-color="#FB7411"/>
<stop offset="1" stop-color="#F0982C"/>
</linearGradient>
</defs>
</svg>
