<svg width="48" height="48" viewBox="0 0 48 48" fill="none" xmlns="http://www.w3.org/2000/svg">
<rect x="1" y="1" width="46" height="46" rx="23" fill="black" fill-opacity="0.3"/>
<path d="M20.241 33.9756C19.8029 33.9756 19.4459 33.8307 19.1701 33.5408C18.8942 33.251 18.7562 32.8957 18.7562 32.4748V29.2448H15.5262C15.1053 29.2448 14.75 29.1049 14.4601 28.8252C14.1703 28.5455 14.0254 28.192 14.0254 27.7648C14.0254 27.3376 14.1703 26.9827 14.4601 26.6999C14.75 26.4171 15.1053 26.2757 15.5262 26.2757H20.2244C20.6638 26.2757 21.0238 26.416 21.3043 26.6966C21.5849 26.9772 21.7252 27.3372 21.7252 27.7766V32.4748C21.7252 32.8957 21.5798 33.251 21.2888 33.5408C20.9979 33.8307 20.6486 33.9756 20.241 33.9756ZM15.5262 21.708C15.1053 21.708 14.75 21.5606 14.4601 21.2656C14.1703 20.9707 14.0254 20.6194 14.0254 20.2118C14.0254 19.7737 14.1703 19.4188 14.4601 19.1469C14.75 18.875 15.1053 18.739 15.5262 18.739H18.7562V15.4764C18.7562 15.0767 18.8961 14.7267 19.1758 14.4262C19.4555 14.1258 19.8089 13.9756 20.2362 13.9756C20.6633 13.9756 21.0183 14.1258 21.3011 14.4262C21.5838 14.7267 21.7252 15.0767 21.7252 15.4764V20.2072C21.7252 20.6466 21.5849 21.0066 21.3043 21.2872C21.0238 21.5678 20.6638 21.708 20.2244 21.708H15.5262ZM27.794 33.9756C27.3668 33.9756 27.0098 33.8307 26.7231 33.5408C26.4363 33.251 26.2929 32.8957 26.2929 32.4748V27.7766C26.2929 27.3372 26.4332 26.9772 26.7138 26.6966C26.9944 26.416 27.3544 26.2757 27.7937 26.2757H32.5246C32.9242 26.2757 33.2743 26.4212 33.5748 26.7121C33.8752 27.0031 34.0254 27.3523 34.0254 27.76C34.0254 28.198 33.8752 28.555 33.5748 28.8309C33.2743 29.1068 32.9242 29.2448 32.5246 29.2448H29.2619V32.4748C29.2619 32.8957 29.1241 33.251 28.8484 33.5408C28.5727 33.8307 28.2212 33.9756 27.794 33.9756ZM27.7937 21.708C27.3544 21.708 26.9944 21.5678 26.7138 21.2872C26.4332 21.0066 26.2929 20.6466 26.2929 20.2072V15.4764C26.2929 15.0767 26.4404 14.7267 26.7353 14.4262C27.0303 14.1258 27.3815 13.9756 27.7892 13.9756C28.2272 13.9756 28.5822 14.1258 28.8541 14.4262C29.126 14.7267 29.2619 15.0767 29.2619 15.4764V18.739H32.5246C32.9242 18.739 33.2743 18.8769 33.5748 19.1526C33.8752 19.4283 34.0254 19.7798 34.0254 20.2069C34.0254 20.6342 33.8752 20.9911 33.5748 21.2779C33.2743 21.5647 32.9242 21.708 32.5246 21.708H27.7937Z" fill="white"/>
<rect x="1" y="1" width="46" height="46" rx="23" stroke="white" stroke-width="2"/>
</svg>
