<svg width="1274" height="110" viewBox="0 0 1274 110" fill="none" xmlns="http://www.w3.org/2000/svg">
<g filter="url(#filter0_d_6115_113635)">
<path d="M72.223 94.9996H51.583V14.9596H91.663C109.663 14.9596 119.503 27.0796 119.503 41.5996C119.503 55.9997 109.663 67.8797 91.663 67.8797H72.223V94.9996ZM98.503 41.4797C98.503 35.9597 94.423 32.3597 88.903 32.3597H72.223V50.3597H88.903C94.423 50.3597 98.503 46.8797 98.503 41.4797Z" fill="url(#paint0_linear_6115_113635)"/>
<path d="M124.612 55.0397C124.612 30.6797 142.972 13.6396 167.452 13.6396C191.932 13.6396 210.172 30.6797 210.172 55.0397C210.172 79.3997 191.932 96.4397 167.452 96.4397C142.972 96.4397 124.612 79.3997 124.612 55.0397ZM189.172 55.0397C189.172 41.9597 180.652 31.8797 167.452 31.8797C154.132 31.8797 145.612 41.9597 145.612 55.0397C145.612 67.9997 154.132 78.1996 167.452 78.1996C180.652 78.1996 189.172 67.9997 189.172 55.0397Z" fill="url(#paint1_linear_6115_113635)"/>
<path d="M301.144 94.9996H279.304L267.184 44.8397L255.064 94.9996H233.224L210.304 14.9596H233.464L245.584 68.3596L259.264 14.9596H275.104L288.784 68.3596L300.784 14.9596H324.064L301.144 94.9996Z" fill="url(#paint2_linear_6115_113635)"/>
<path d="M389.169 94.9996H330.489V14.9596H389.169V32.3597H351.129V45.6797H388.329V63.1996H351.129V77.5997H389.169V94.9996Z" fill="url(#paint3_linear_6115_113635)"/>
<path d="M469.433 94.9996H445.793L432.353 67.8797H421.793V94.9996H401.153V14.9596H441.233C458.993 14.9596 469.073 26.7197 469.073 41.5996C469.073 55.5196 460.553 62.9596 453.113 65.5997L469.433 94.9996ZM448.073 41.3596C448.073 35.8396 443.513 32.3597 438.113 32.3597H421.793V50.3597H438.113C443.513 50.3597 448.073 46.8797 448.073 41.3596Z" fill="url(#paint4_linear_6115_113635)"/>
<path d="M527.289 94.9996H480.489V14.9596H525.849C541.689 14.9596 549.249 25.2796 549.249 35.3597C549.249 45.3196 543.129 52.0397 535.569 53.7197C544.089 55.0397 550.809 63.1997 550.809 73.2797C550.809 84.9197 543.009 94.9996 527.289 94.9996ZM501.129 32.1196V45.9197H521.169C525.369 45.9197 528.249 42.9197 528.249 38.9597C528.249 34.9997 525.369 32.1196 521.169 32.1196H501.129ZM501.129 62.9597V77.8396H521.889C526.809 77.8396 529.809 74.8397 529.809 70.5197C529.809 66.4397 526.929 62.9597 521.889 62.9597H501.129Z" fill="url(#paint5_linear_6115_113635)"/>
<path d="M639.812 94.9996H617.372L613.292 82.8796H580.052L575.972 94.9996H553.532L583.652 14.9596H609.572L639.812 94.9996ZM607.892 65.4797L596.612 32.9597L585.452 65.4797H607.892Z" fill="url(#paint6_linear_6115_113635)"/>
<path d="M639.495 83.7197L650.415 68.2397C656.175 73.9997 665.055 78.7997 675.975 78.7997C683.055 78.7997 687.375 75.7997 687.375 71.9597C687.375 67.3997 682.215 65.5997 673.695 63.7997C660.495 61.1597 642.015 57.7997 642.015 38.8396C642.015 25.3996 653.415 13.7596 673.935 13.7596C686.775 13.7596 697.935 17.5996 706.455 24.9196L695.175 39.6796C688.455 34.1596 679.695 31.3996 672.615 31.3996C665.775 31.3996 663.135 34.1596 663.135 37.6397C663.135 41.8397 668.055 43.2796 676.935 44.9596C690.135 47.7196 708.375 51.5597 708.375 69.6797C708.375 85.7597 696.495 96.4397 675.015 96.4397C658.815 96.4397 647.535 91.3997 639.495 83.7197Z" fill="url(#paint7_linear_6115_113635)"/>
<path d="M776.708 94.9996H718.028V14.9596H776.708V32.3597H738.668V45.6797H775.868V63.1996H738.668V77.5997H776.708V94.9996Z" fill="url(#paint8_linear_6115_113635)"/>
<path d="M819.396 62.5997V14.9596H840.396V61.8797C840.396 71.3597 845.436 78.1996 856.596 78.1996C867.636 78.1996 872.675 71.3597 872.675 61.8797V14.9596H893.675V62.4796C893.675 82.3997 882.276 96.4397 856.596 96.4397C830.916 96.4397 819.396 82.2797 819.396 62.5997Z" fill="url(#paint9_linear_6115_113635)"/>
<path d="M960.906 94.9996H908.106V14.9596H928.746V76.9997H960.906V94.9996Z" fill="url(#paint10_linear_6115_113635)"/>
<path d="M998.189 94.9996H977.549V32.9597H955.109V14.9596H1020.51V32.9597H998.189V94.9996Z" fill="url(#paint11_linear_6115_113635)"/>
<path d="M1098.61 94.9996H1074.97L1061.53 67.8797H1050.97V94.9996H1030.33V14.9596H1070.41C1088.17 14.9596 1098.25 26.7197 1098.25 41.5996C1098.25 55.5196 1089.73 62.9596 1082.29 65.5997L1098.61 94.9996ZM1077.25 41.3596C1077.25 35.8396 1072.69 32.3597 1067.29 32.3597H1050.97V50.3597H1067.29C1072.69 50.3597 1077.25 46.8797 1077.25 41.3596Z" fill="url(#paint12_linear_6115_113635)"/>
<path d="M1187.43 94.9996H1164.99L1160.91 82.8796H1127.67L1123.59 94.9996H1101.15L1131.27 14.9596H1157.19L1187.43 94.9996ZM1155.51 65.4797L1144.23 32.9597L1133.07 65.4797H1155.51Z" fill="url(#paint13_linear_6115_113635)"/>
<path d="M1195.41 18.0796H1187.97V41.3596H1184.61V18.0796H1177.17V14.9596H1195.41V18.0796ZM1225.41 41.3596H1222.05V19.5197L1213.05 41.3596H1212.09L1203.09 19.5197V41.3596H1199.73V14.9596H1204.89L1212.57 34.1596L1220.25 14.9596H1225.41V41.3596Z" fill="url(#paint14_linear_6115_113635)"/>
</g>
<defs>
<filter id="filter0_d_6115_113635" x="38.0935" y="0.150183" width="1200.8" height="109.779" filterUnits="userSpaceOnUse" color-interpolation-filters="sRGB">
<feFlood flood-opacity="0" result="BackgroundImageFix"/>
<feColorMatrix in="SourceAlpha" type="matrix" values="0 0 0 0 0 0 0 0 0 0 0 0 0 0 0 0 0 0 127 0" result="hardAlpha"/>
<feOffset/>
<feGaussianBlur stdDeviation="6.74473"/>
<feComposite in2="hardAlpha" operator="out"/>
<feColorMatrix type="matrix" values="0 0 0 0 0 0 0 0 0 0 0 0 0 0 0 0 0 0 0.2 0"/>
<feBlend mode="normal" in2="BackgroundImageFix" result="effect1_dropShadow_6115_113635"/>
<feBlend mode="normal" in="SourceGraphic" in2="effect1_dropShadow_6115_113635" result="shape"/>
</filter>
<linearGradient id="paint0_linear_6115_113635" x1="489.115" y1="96.4397" x2="490.523" y2="29.4013" gradientUnits="userSpaceOnUse">
<stop offset="0.0833032" stop-color="#FB7411"/>
<stop offset="1" stop-color="#F0982C"/>
</linearGradient>
<linearGradient id="paint1_linear_6115_113635" x1="489.115" y1="96.4397" x2="490.523" y2="29.4013" gradientUnits="userSpaceOnUse">
<stop offset="0.0833032" stop-color="#FB7411"/>
<stop offset="1" stop-color="#F0982C"/>
</linearGradient>
<linearGradient id="paint2_linear_6115_113635" x1="489.115" y1="96.4397" x2="490.523" y2="29.4013" gradientUnits="userSpaceOnUse">
<stop offset="0.0833032" stop-color="#FB7411"/>
<stop offset="1" stop-color="#F0982C"/>
</linearGradient>
<linearGradient id="paint3_linear_6115_113635" x1="489.115" y1="96.4397" x2="490.523" y2="29.4013" gradientUnits="userSpaceOnUse">
<stop offset="0.0833032" stop-color="#FB7411"/>
<stop offset="1" stop-color="#F0982C"/>
</linearGradient>
<linearGradient id="paint4_linear_6115_113635" x1="489.115" y1="96.4397" x2="490.523" y2="29.4013" gradientUnits="userSpaceOnUse">
<stop offset="0.0833032" stop-color="#FB7411"/>
<stop offset="1" stop-color="#F0982C"/>
</linearGradient>
<linearGradient id="paint5_linear_6115_113635" x1="489.115" y1="96.4397" x2="490.523" y2="29.4013" gradientUnits="userSpaceOnUse">
<stop offset="0.0833032" stop-color="#FB7411"/>
<stop offset="1" stop-color="#F0982C"/>
</linearGradient>
<linearGradient id="paint6_linear_6115_113635" x1="489.115" y1="96.4397" x2="490.523" y2="29.4013" gradientUnits="userSpaceOnUse">
<stop offset="0.0833032" stop-color="#FB7411"/>
<stop offset="1" stop-color="#F0982C"/>
</linearGradient>
<linearGradient id="paint7_linear_6115_113635" x1="489.115" y1="96.4397" x2="490.523" y2="29.4013" gradientUnits="userSpaceOnUse">
<stop offset="0.0833032" stop-color="#FB7411"/>
<stop offset="1" stop-color="#F0982C"/>
</linearGradient>
<linearGradient id="paint8_linear_6115_113635" x1="489.115" y1="96.4397" x2="490.523" y2="29.4013" gradientUnits="userSpaceOnUse">
<stop offset="0.0833032" stop-color="#FB7411"/>
<stop offset="1" stop-color="#F0982C"/>
</linearGradient>
<linearGradient id="paint9_linear_6115_113635" x1="489.115" y1="96.4397" x2="490.523" y2="29.4013" gradientUnits="userSpaceOnUse">
<stop offset="0.0833032" stop-color="#FB7411"/>
<stop offset="1" stop-color="#F0982C"/>
</linearGradient>
<linearGradient id="paint10_linear_6115_113635" x1="489.115" y1="96.4397" x2="490.523" y2="29.4013" gradientUnits="userSpaceOnUse">
<stop offset="0.0833032" stop-color="#FB7411"/>
<stop offset="1" stop-color="#F0982C"/>
</linearGradient>
<linearGradient id="paint11_linear_6115_113635" x1="489.115" y1="96.4397" x2="490.523" y2="29.4013" gradientUnits="userSpaceOnUse">
<stop offset="0.0833032" stop-color="#FB7411"/>
<stop offset="1" stop-color="#F0982C"/>
</linearGradient>
<linearGradient id="paint12_linear_6115_113635" x1="489.115" y1="96.4397" x2="490.523" y2="29.4013" gradientUnits="userSpaceOnUse">
<stop offset="0.0833032" stop-color="#FB7411"/>
<stop offset="1" stop-color="#F0982C"/>
</linearGradient>
<linearGradient id="paint13_linear_6115_113635" x1="489.115" y1="96.4397" x2="490.523" y2="29.4013" gradientUnits="userSpaceOnUse">
<stop offset="0.0833032" stop-color="#FB7411"/>
<stop offset="1" stop-color="#F0982C"/>
</linearGradient>
<linearGradient id="paint14_linear_6115_113635" x1="489.115" y1="96.4397" x2="490.523" y2="29.4013" gradientUnits="userSpaceOnUse">
<stop offset="0.0833032" stop-color="#FB7411"/>
<stop offset="1" stop-color="#F0982C"/>
</linearGradient>
</defs>
</svg>
