<svg width="103" height="20" viewBox="0 0 103 20" fill="none" xmlns="http://www.w3.org/2000/svg">
<g clip-path="url(#clip0_6108_113614)">
<path d="M10.2507 19.5202C10.028 19.5202 9.83681 19.4384 9.67708 19.2749C9.51736 19.1113 9.4375 18.9223 9.4375 18.7077V17.9785C7.50694 17.7702 5.87847 17.0063 4.55208 15.6868C3.22569 14.3674 2.46528 12.7493 2.27083 10.8327H1.54167C1.32465 10.8327 1.13845 10.7511 0.983063 10.5881C0.827688 10.425 0.75 10.2292 0.75 10.0008C0.75 9.7724 0.827694 9.57964 0.983083 9.42252C1.13844 9.26541 1.32464 9.18685 1.54167 9.18685H2.27083C2.49306 7.25629 3.26389 5.62782 4.58333 4.30143C5.90278 2.97504 7.52083 2.20434 9.4375 1.98931V1.31185C9.4375 1.08303 9.51708 0.886939 9.67625 0.723578C9.83542 0.560203 10.0263 0.478516 10.2489 0.478516C10.4715 0.478516 10.6662 0.560203 10.8331 0.723578C10.9999 0.886939 11.0833 1.08303 11.0833 1.31185V1.98931C12.9861 2.20434 14.5972 2.97504 15.9167 4.30143C17.2361 5.62782 18.0139 7.25629 18.25 9.18685H18.9583C19.1813 9.18685 19.3724 9.26571 19.5318 9.42343C19.6911 9.58117 19.7708 9.77217 19.7708 9.99643C19.7708 10.2207 19.6911 10.4161 19.5318 10.5827C19.3724 10.7494 19.1813 10.8327 18.9583 10.8327H18.25C18.0417 12.7493 17.2743 14.3674 15.9479 15.6868C14.6215 17.0063 13 17.7702 11.0833 17.9785V18.7077C11.0833 18.9223 11.0017 19.1113 10.8385 19.2749C10.6753 19.4384 10.4793 19.5202 10.2507 19.5202ZM10.2464 16.1243C11.9294 16.1243 13.375 15.5292 14.5833 14.3388C15.7917 13.1484 16.3958 11.704 16.3958 10.0055C16.3958 8.30694 15.7929 6.85699 14.5869 5.6556C13.381 4.45421 11.9365 3.85352 10.2536 3.85352C8.57064 3.85352 7.125 4.45302 5.91667 5.65202C4.70833 6.85103 4.10417 8.29979 4.10417 9.99829C4.10417 11.6968 4.70714 13.1424 5.91308 14.3352C7.11904 15.528 8.56349 16.1243 10.2464 16.1243ZM10.2604 13.0618C9.39236 13.0618 8.66667 12.7702 8.08333 12.1868C7.5 11.6035 7.20833 10.8778 7.20833 10.0098C7.20833 9.14171 7.50147 8.41254 8.08775 7.82227C8.67404 7.23199 9.39132 6.93685 10.2396 6.93685C11.1076 6.93685 11.8368 7.23203 12.4271 7.82239C13.0174 8.41277 13.3125 9.13842 13.3125 9.99935C13.3125 10.8743 13.0181 11.6035 12.4294 12.1868C11.8407 12.7702 11.1177 13.0618 10.2604 13.0618Z" fill="url(#paint0_linear_6108_113614)"/>
<path d="M30.6836 3.54966H34.0718C35.2497 3.54966 36.1088 3.82681 36.6493 4.38111C37.1897 4.92156 37.4599 5.75994 37.4599 6.89626V7.79008C37.4599 9.30055 36.9611 10.2567 35.9633 10.6586V10.7002C36.5176 10.8665 36.9056 11.206 37.1274 11.7187C37.3629 12.2314 37.4807 12.9174 37.4807 13.7765V16.3333C37.4807 16.749 37.4946 17.0885 37.5223 17.3518C37.55 17.6012 37.6193 17.8507 37.7302 18.1001H35.4021C35.319 17.8645 35.2635 17.6428 35.2358 17.4349C35.2081 17.2271 35.1942 16.8529 35.1942 16.3125V13.6518C35.1942 12.9867 35.0834 12.5224 34.8617 12.2591C34.6538 11.9959 34.2866 11.8642 33.76 11.8642H32.9701V18.1001H30.6836V3.54966ZM33.8015 9.78557C34.2588 9.78557 34.5984 9.66778 34.8201 9.4322C35.0557 9.19662 35.1734 8.80168 35.1734 8.24738V7.12491C35.1734 6.59833 35.0764 6.21724 34.8824 5.98166C34.7023 5.74609 34.4113 5.6283 34.0094 5.6283H32.9701V9.78557H33.8015Z" fill="url(#paint1_linear_6108_113614)"/>
<path d="M44.3469 18.308C43.2244 18.308 42.3653 17.9892 41.7694 17.3518C41.1735 16.7144 40.8756 15.8136 40.8756 14.6496V7.0002C40.8756 5.83616 41.1735 4.93542 41.7694 4.29797C42.3653 3.66052 43.2244 3.3418 44.3469 3.3418C45.4694 3.3418 46.3285 3.66052 46.9244 4.29797C47.5203 4.93542 47.8182 5.83616 47.8182 7.0002V14.6496C47.8182 15.8136 47.5203 16.7144 46.9244 17.3518C46.3285 17.9892 45.4694 18.308 44.3469 18.308ZM44.3469 16.2293C45.1368 16.2293 45.5317 15.7513 45.5317 14.7951V6.85469C45.5317 5.89852 45.1368 5.42043 44.3469 5.42043C43.557 5.42043 43.1621 5.89852 43.1621 6.85469V14.7951C43.1621 15.7513 43.557 16.2293 44.3469 16.2293Z" fill="url(#paint2_linear_6108_113614)"/>
<path d="M53.0655 3.54966H56.1626L58.5323 18.1001H56.2458L55.83 15.2108V15.2524H53.2318L52.816 18.1001H50.6958L53.0655 3.54966ZM55.5598 13.2777L54.5413 6.0856H54.4997L53.502 13.2777H55.5598Z" fill="url(#paint3_linear_6108_113614)"/>
<path d="M61.6163 3.54966H65.1084C66.2447 3.54966 67.097 3.85453 67.6651 4.46426C68.2333 5.07399 68.5174 5.96781 68.5174 7.1457V14.5041C68.5174 15.682 68.2333 16.5758 67.6651 17.1855C67.097 17.7952 66.2447 18.1001 65.1084 18.1001H61.6163V3.54966ZM65.0668 16.0215C65.441 16.0215 65.7251 15.9106 65.9191 15.6889C66.1269 15.4672 66.2309 15.1069 66.2309 14.608V7.04177C66.2309 6.5429 66.1269 6.1826 65.9191 5.96088C65.7251 5.73916 65.441 5.6283 65.0668 5.6283H63.9028V16.0215H65.0668Z" fill="url(#paint4_linear_6108_113614)"/>
<path d="M72.0354 3.54966H75.2989L76.754 13.9636H76.7955L78.2506 3.54966H81.514V18.1001H79.3522V7.08334H79.3107L77.6478 18.1001H75.7354L74.0725 7.08334H74.0309V18.1001H72.0354V3.54966Z" fill="url(#paint5_linear_6108_113614)"/>
<path d="M86.9618 3.54966H90.059L92.4286 18.1001H90.1422L89.7264 15.2108V15.2524H87.1281L86.7124 18.1001H84.5922L86.9618 3.54966ZM89.4562 13.2777L88.4377 6.0856H88.3961L87.3984 13.2777H89.4562Z" fill="url(#paint6_linear_6108_113614)"/>
<path d="M95.5127 3.54966H98.8801C100.016 3.54966 100.869 3.85453 101.437 4.46426C102.005 5.07399 102.289 5.96781 102.289 7.1457V8.57996C102.289 9.75785 102.005 10.6517 101.437 11.2614C100.869 11.8711 100.016 12.176 98.8801 12.176H97.7992V18.1001H95.5127V3.54966ZM98.8801 10.0974C99.2542 10.0974 99.5314 9.99343 99.7115 9.78557C99.9055 9.5777 100.003 9.22434 100.003 8.72546V7.0002C100.003 6.50132 99.9055 6.14795 99.7115 5.94009C99.5314 5.73223 99.2542 5.6283 98.8801 5.6283H97.7992V10.0974H98.8801Z" fill="url(#paint7_linear_6108_113614)"/>
</g>
<defs>
<linearGradient id="paint0_linear_6108_113614" x1="7.83984" y1="19.5202" x2="12.0629" y2="5.35549" gradientUnits="userSpaceOnUse">
<stop offset="0.0833032" stop-color="#FB7411"/>
<stop offset="1" stop-color="#F0982C"/>
</linearGradient>
<linearGradient id="paint1_linear_6108_113614" x1="57.3739" y1="18.308" x2="58.1255" y2="6.23217" gradientUnits="userSpaceOnUse">
<stop offset="0.0833032" stop-color="#FB7411"/>
<stop offset="1" stop-color="#F0982C"/>
</linearGradient>
<linearGradient id="paint2_linear_6108_113614" x1="57.3739" y1="18.308" x2="58.1255" y2="6.23217" gradientUnits="userSpaceOnUse">
<stop offset="0.0833032" stop-color="#FB7411"/>
<stop offset="1" stop-color="#F0982C"/>
</linearGradient>
<linearGradient id="paint3_linear_6108_113614" x1="57.3739" y1="18.308" x2="58.1255" y2="6.23217" gradientUnits="userSpaceOnUse">
<stop offset="0.0833032" stop-color="#FB7411"/>
<stop offset="1" stop-color="#F0982C"/>
</linearGradient>
<linearGradient id="paint4_linear_6108_113614" x1="57.3739" y1="18.308" x2="58.1255" y2="6.23217" gradientUnits="userSpaceOnUse">
<stop offset="0.0833032" stop-color="#FB7411"/>
<stop offset="1" stop-color="#F0982C"/>
</linearGradient>
<linearGradient id="paint5_linear_6108_113614" x1="57.3739" y1="18.308" x2="58.1255" y2="6.23217" gradientUnits="userSpaceOnUse">
<stop offset="0.0833032" stop-color="#FB7411"/>
<stop offset="1" stop-color="#F0982C"/>
</linearGradient>
<linearGradient id="paint6_linear_6108_113614" x1="57.3739" y1="18.308" x2="58.1255" y2="6.23217" gradientUnits="userSpaceOnUse">
<stop offset="0.0833032" stop-color="#FB7411"/>
<stop offset="1" stop-color="#F0982C"/>
</linearGradient>
<linearGradient id="paint7_linear_6108_113614" x1="57.3739" y1="18.308" x2="58.1255" y2="6.23217" gradientUnits="userSpaceOnUse">
<stop offset="0.0833032" stop-color="#FB7411"/>
<stop offset="1" stop-color="#F0982C"/>
</linearGradient>
<clipPath id="clip0_6108_113614">
<rect width="103" height="20" fill="white"/>
</clipPath>
</defs>
</svg>
