<svg width="48" height="48" viewBox="0 0 48 48" fill="none" xmlns="http://www.w3.org/2000/svg">
<rect x="1" y="1" width="46" height="46" rx="23" fill="black" fill-opacity="0.3"/>
<path d="M15.5262 33.9756C15.0868 33.9756 14.7269 33.8353 14.4463 33.5547C14.1657 33.2741 14.0254 32.9141 14.0254 32.4748V27.7439C14.0254 27.3443 14.1729 26.9996 14.4678 26.7101C14.7627 26.4205 15.114 26.2757 15.5216 26.2757C15.9597 26.2757 16.3147 26.4205 16.5866 26.7101C16.8585 26.9996 16.9944 27.3443 16.9944 27.7439V31.0066H20.257C20.6567 31.0066 21.0013 31.1444 21.2909 31.4201C21.5805 31.6958 21.7252 32.0473 21.7252 32.4745C21.7252 32.9017 21.5805 33.2587 21.2909 33.5454C21.0013 33.8322 20.6567 33.9756 20.257 33.9756H15.5262ZM15.5265 21.708C15.0993 21.708 14.7423 21.5631 14.4555 21.2733C14.1688 20.9835 14.0254 20.6281 14.0254 20.2072V15.509C14.0254 15.0697 14.1657 14.7042 14.4463 14.4128C14.7269 14.1213 15.0868 13.9756 15.5262 13.9756H20.257C20.6567 13.9756 21.0013 14.1265 21.2909 14.4283C21.5805 14.7301 21.7252 15.0848 21.7252 15.4924C21.7252 15.9305 21.5805 16.2875 21.2909 16.5634C21.0013 16.8393 20.6567 16.9772 20.257 16.9772H16.9944V20.2072C16.9944 20.6281 16.8565 20.9835 16.5809 21.2733C16.3051 21.5631 15.9537 21.708 15.5265 21.708ZM27.7937 33.9756C27.3729 33.9756 27.0175 33.8281 26.7277 33.5332C26.4378 33.2383 26.2929 32.887 26.2929 32.4793C26.2929 32.0413 26.4378 31.6863 26.7277 31.4144C27.0175 31.1425 27.3729 31.0066 27.7937 31.0066H31.0238V27.7439C31.0238 27.3443 31.1636 26.9996 31.4433 26.7101C31.723 26.4205 32.0765 26.2757 32.5037 26.2757C32.9309 26.2757 33.2913 26.4205 33.5849 26.7101C33.8786 26.9996 34.0254 27.3443 34.0254 27.7439V32.4748C34.0254 32.9141 33.8797 33.2741 33.5882 33.5547C33.2967 33.8353 32.9313 33.9756 32.4919 33.9756H27.7937ZM32.5086 21.708C32.0705 21.708 31.7135 21.5631 31.4376 21.2733C31.1617 20.9835 31.0238 20.6281 31.0238 20.2072V16.9772H27.7937C27.3729 16.9772 27.0175 16.8374 26.7277 16.5576C26.4378 16.2779 26.2929 15.9245 26.2929 15.4973C26.2929 15.0701 26.4378 14.7097 26.7277 14.416C27.0175 14.1224 27.3729 13.9756 27.7937 13.9756H32.4919C32.9313 13.9756 33.2967 14.1213 33.5882 14.4128C33.8797 14.7042 34.0254 15.0697 34.0254 15.509V20.2072C34.0254 20.6281 33.8745 20.9835 33.5727 21.2733C33.2709 21.5631 32.9162 21.708 32.5086 21.708Z" fill="white"/>
<rect x="1" y="1" width="46" height="46" rx="23" stroke="white" stroke-width="2"/>
</svg>
